<?xml version="1.0" standalone="no"?><!DOCTYPE svg PUBLIC "-//W3C//DTD SVG 1.1//EN" "http://www.w3.org/Graphics/SVG/1.1/DTD/svg11.dtd"><svg t="1531637994218" class="icon" style="" viewBox="0 0 1024 1024" version="1.1" xmlns="http://www.w3.org/2000/svg" p-id="1945" xmlns:xlink="http://www.w3.org/1999/xlink" width="64" height="64"><defs><style type="text/css"></style></defs><path d="M855.324444 990.492444 46.478222 990.492444 46.478222 181.646222 555.576889 181.646222 555.576889 224.312889 89.144889 224.312889 89.144889 947.825778 812.657778 947.825778 812.657778 432.071111 855.324444 432.071111Z" p-id="1946" fill="#ffffff"></path><path d="M423.765333 773.347556l-186.083556-186.083556 553.699556-553.756444 186.083556 186.083556L423.765333 773.347556zM298.040889 587.264l125.724444 125.724444 493.397333-493.454222-125.724444-125.724444L298.040889 587.264z" p-id="1947" fill="#ffffff"></path><path d="M423.594667 772.664889 238.592 772.664889 238.592 587.662222 293.205333 587.662222 293.205333 630.328889 281.258667 630.328889 281.258667 729.998222 380.928 729.998222 380.928 721.180444 423.594667 721.180444Z" p-id="1948" fill="#ffffff"></path><path d="M694.001892 183.732201l136.28614 136.28614-30.209826 30.209826-136.28614-136.28614 30.209826-30.209826Z" p-id="1949" fill="#ffffff"></path></svg>